PathFileType	4	(X/Y/Z)	0_1_22_p0_0-274.trc
DataRate	CameraRate	NumFrames	NumMarkers	Units	OrigDataRate	OrigDataStartFrame	OrigNumFrames
60	60	6	27	m	60	0	274
Frame#	Time	RHip			RKnee			RAnkle			RBigToe			RSmallToe			RHeel			LHip			LKnee			LAnkle			LBigToe			LSmallToe			LHeel			Neck			Head			Nose			RShoulder			RElbow			RWrist			RThumb			RIndex			RPinky			LShoulder			LElbow			LWrist			LThumb			LIndex			LPinky		
		X1	Y1	Z1	X2	Y2	Z2	X3	Y3	Z3	X4	Y4	Z4	X5	Y5	Z5	X6	Y6	Z6	X7	Y7	Z7	X8	Y8	Z8	X9	Y9	Z9	X10	Y10	Z10	X11	Y11	Z11	X12	Y12	Z12	X13	Y13	Z13	X14	Y14	Z14	X15	Y15	Z15	X16	Y16	Z16	X17	Y17	Z17	X18	Y18	Z18	X19	Y19	Z19	X20	Y20	Z20	X21	Y21	Z21	X22	Y22	Z22	X23	Y23	Z23	X24	Y24	Z24	X25	Y25	Z25	X26	Y26	Z26	X27	Y27	Z27
1	0.016666666666666666	0.11657857415620611	0.20674473388281717	0.02755484040774413	0.1293067540359497	0.2405295290418607	-0.41975380598492446	0.1545570434672483	0.20279181180194694	-0.7866735611872715	0.1711104045563113	0.051566741548604876	-0.7877163563273988	0.09919828420071922	0.08528945972271053	-0.7943400685594914	0.16798645439304358	0.2231759903810244	-0.825122202721628	0.33218761985648293	0.20716978289534313	0.016873230964172023	0.3401789948029697	0.21390382495254875	-0.40907404630307126	0.3534501686227057	0.2395244775307152	-0.8241736593637515	0.31742339239693673	0.06144534258444144	-0.7850992799079536	0.36979159940124146	0.11121064266181648	-0.803751147746231	0.34536803526729565	0.28768843857966536	-0.880281552233981	0.207472199408781	0.3070332797652412	0.5336189331349545	0.18602100924602838	0.20878415048663596	0.7972941879492107	0.1815685706789083	0.16601411206596584	0.6625919480303814	0.04983779417451117	0.24803844982072024	0.4877686003673778	0.012658258704684388	0.21891538812632602	0.22868317643837466	0.14357276055860654	0.05824963586689978	0.07694936351146435	0.23250772126463326	0.03117802073112507	0.03561812692487793	0.2418037645376776	0.05480314513645848	0.00015816493807080848	0.20699688586325093	0.03953327338135486	-0.007868942049781289	0.3599955883027895	0.2589601317728296	0.4795223192233729	0.41853870262642623	0.2509108163860457	0.22719072634431456	0.30096547774811455	0.07834222950592414	0.10063036575242716	0.22366131642077516	0.011798865267709532	0.0699978845181346	0.22324052789792045	0.0063473490730198	0.04775160873980512	0.2473582607920736	0.0657133874356736	-0.0039867843356308184
2	0.03333333333333333	0.11658995591697646	0.20680500177770808	0.027496927723129803	0.1291015265698212	0.24064056610556478	-0.41976775882474393	0.15888483903925218	0.20100587064476638	-0.7855753912661513	0.17674979640994415	0.0640907608955774	-0.7930970373294162	0.0992418248649726	0.08532733897882469	-0.7943109389147723	0.16823468240821193	0.22329170804938253	-0.824896675376488	0.33212376749775413	0.20721990277381402	0.01677133763231157	0.3320323739819518	0.2130892944127244	-0.4082319506696699	0.3534663752805597	0.2396563475659858	-0.8243922839440078	0.32246403533800466	0.058273371811349284	-0.7879090318019062	0.3698111152482796	0.1113724086235026	-0.8039813947435175	0.34544096346720504	0.2875659064284221	-0.8803717489820654	0.20748520988210192	0.30684076455040504	0.5335533700090386	0.1859322545299428	0.20753080833787874	0.7943348137731052	0.1815538606192001	0.16608154156788701	0.6625872187644317	0.053796334541534534	0.2616575915197876	0.480583264112873	0.012636226568561865	0.21904490175110175	0.22864885507619753	0.14360048431751277	0.058348034907746475	0.07694369461458199	0.2323628876930256	0.031077375312572045	0.03556330699500233	0.23920484646816548	0.06599863735601261	-0.008880684451730564	0.204188113348334	0.05109265595380922	-0.013273384021387792	0.3546587985656971	0.24673110924682437	0.4826886361742875	0.41864091880517984	0.25075365725136084	0.22721639332854177	0.3010427077827125	0.07836598895528775	0.10071852220156907	0.22914784631447263	0.02252927261034311	0.0690225558816645	0.22351741654797164	0.006717917623458984	0.04779181883183693	0.24733819340118673	0.06746546796178575	0.0031883174172340745
3	0.05	0.11654063727944478	0.2069409133884295	0.02737396113902812	0.12909055237609057	0.24060999160112623	-0.4196896124772181	0.15459588551085243	0.2031434048331883	-0.7868681126671404	0.17671335561249898	0.06410300875650078	-0.7930516551306437	0.09922935540177702	0.0853699047237105	-0.7942586253840901	0.16817928005778185	0.223635911910801	-0.8250603961044575	0.3297427781334981	0.2194989657492674	0.01145435671893059	0.33196763535857454	0.21273858414499222	-0.40791324457094186	0.35342685865803886	0.23982639114402207	-0.8243818582420556	0.3183912398320458	0.060596078219579505	-0.7894592902673201	0.3698200423440214	0.11146668575547238	-0.8039834008447189	0.3454353064893028	0.2878321420372453	-0.8804179647216129	0.207537582846561	0.30690662052294304	0.5335741828306749	0.18588542383838205	0.20771800976906477	0.7942602607034105	0.18152749233349688	0.16619550390067445	0.6626673101284545	0.0540886814840166	0.261163132535048	0.4845736619958732	0.01238688790457757	0.22003074893189078	0.23204072553779231	0.14371619211812364	0.05968426274264447	0.08060930118291981	0.22764714913723696	0.019921381572997863	0.04096335961289072	0.23440400145452636	0.05467764875078326	-0.0032373656341777796	0.20422273741189303	0.05181962407386657	-0.013598014674436549	0.35993552267462264	0.25887927692097507	0.47957983301570617	0.4189169618670822	0.24956063364890588	0.22356186181635956	0.2959989699319077	0.06674706989558514	0.10574138639569002	0.2243476432016104	0.01217323141586181	0.07701255121722368	0.2239422542661521	0.0070192530288996444	0.05530122072782126	0.24893719000020115	0.05595884298977069	0.00828183120322855
4	0.06666666666666667	0.11647988732065538	0.20695113035906507	0.02757024770084102	0.12902891343643647	0.2407072694705295	-0.41965398185177866	0.1545507250666255	0.20317703610887258	-0.786875948364945	0.17664287631336292	0.06423107432205345	-0.7931078423711363	0.09922456172701521	0.08544160056918847	-0.7942696436701665	0.16815877803618176	0.22356909847159193	-0.8250242573141402	0.32936635988249774	0.22039331856184008	0.015853874355010268	0.332105005489803	0.21297984187959199	-0.4080312717163341	0.3534291464589724	0.23980678973747843	-0.8244007670511947	0.3183809844351297	0.06065912753281033	-0.7896364970832609	0.37583571176932384	0.12447041868854339	-0.8139819475449395	0.34539808772910713	0.2877136869096845	-0.8803564573538134	0.207551215536339	0.30687474953474175	0.5335369606136495	0.18597009751533805	0.20882575931841618	0.7973068015174428	0.18152342073056887	0.16618914477259017	0.6626541217119343	0.053812682449476804	0.2617634384904363	0.48066749039045936	0.012282371571408896	0.22014329007683223	0.23203801666110843	0.1436670069834529	0.05966855286183701	0.08069813391292059	0.2275156537215546	0.019677045783059965	0.0411286222917175	0.2342741389589483	0.05431207387360526	-0.003260918234184272	0.2037892087593798	0.052377635745490266	-0.0142499132263196	0.3599415528496081	0.258946572691152	0.4795480764111699	0.4188489576681123	0.2497225093204715	0.2235345573984828	0.2957890983605926	0.0666567930328559	0.1057766218112903	0.2241694479452346	0.012182483055362438	0.07691252569812926	0.21955277475151583	0.007928719672546136	0.047615591383510306	0.2440992577967566	0.04444570728991993	0.013659978158199299
5	0.08333333333333333	0.11649367310450015	0.2068630313789869	0.027460208574839582	0.12889348575982867	0.24084755619013154	-0.4197126839539844	0.15453584509111976	0.2030235579858892	-0.7867406097293143	0.17422539723655106	0.07570247295411847	-0.8014226874271979	0.09913796577552964	0.08559605487593516	-0.7943117433672866	0.16817779918382983	0.22335140615653185	-0.824785602805329	0.332152733322471	0.20740081128390514	0.016507671588334986	0.33147929216376143	0.21354136491777256	-0.40401624399038244	0.3534002664825193	0.2397328819850236	-0.8244676230228746	0.31762019779379785	0.06174017643151635	-0.7949167184315248	0.36978944362580984	0.11140411579595345	-0.8039933948051249	0.3453595955109478	0.2876491708887122	-0.8803583706963207	0.20752849455274963	0.30685353417295386	0.5335906059272028	0.18593900881698652	0.20883522127902465	0.7972910121633188	0.1815183245145143	0.16620053533436993	0.662676536594347	0.05406769904077382	0.26101564309781305	0.4845349209878547	0.012275677682948787	0.22023073978791302	0.2320000360111908	0.14365538834080616	0.059721476549683745	0.08064995317049539	0.22739439391998906	0.019483380331232567	0.04142969051869826	0.23415855829831686	0.054106306171792025	-0.0029276333543364324	0.20379731493069442	0.05364226284363212	-0.010894357100770231	0.3546720591949847	0.2467284307988438	0.48274274524047794	0.4186630502385387	0.2506118903857234	0.2194674535321388	0.2959067971943917	0.06715310471894541	0.1056414655859207	0.22439715189491918	0.013305676663504459	0.07998178790299544	0.2192887502758835	0.01043722594683301	0.053806692920011515	0.24680463152227153	0.06797684347135012	0.003418661864231553
6	0.1	0.11691336106277167	0.20577054900880043	0.023813505710761403	0.12901637355168732	0.2408590766441965	-0.41969608412249065	0.15455071944510373	0.20296933297418657	-0.7867114111106107	0.17665010473912118	0.0639500227725941	-0.7928471697564572	0.09924306767070076	0.08522970600109808	-0.7941359217881294	0.16810656679681968	0.22381556040084605	-0.8250671536530451	0.32987174369428884	0.21957764105683245	0.011612027832187904	0.33168355818297696	0.2154066859500149	-0.4003643187871089	0.3534317083135357	0.2396717502745817	-0.8244173931174984	0.318353014722589	0.06041824114667399	-0.7892887343580847	0.36978828186784873	0.11126847325113692	-0.8039126909711587	0.3453967773979181	0.28765565498606094	-0.8804363294062632	0.2075481167830906	0.30690724371057654	0.533579491777694	0.18592099521023378	0.20890762893461648	0.7972919123691513	0.18152476561563202	0.16619732788378422	0.6626695106834947	0.054174140396170016	0.2609911916190562	0.4845873004266976	0.012202769109019433	0.22023941622250923	0.23209725002708592	0.14362413122869977	0.05967342272440125	0.08070941457022886	0.227464368376165	0.019702091700570128	0.04120418423898254	0.23864611038916428	0.06704706459663907	-0.005156450751775359	0.20833618713465513	0.06498120000488375	-0.01629360601706284	0.35466116786721114	0.24672478070224724	0.4827392338965759	0.4186380091184319	0.2506247490929749	0.21948551983592432	0.30081499996634453	0.07866467456474707	0.10074143547457795	0.2291589181448856	0.023621305476274196	0.07203321410417911	0.21913662597422137	0.009391521362885432	0.05077162374496122	0.24266900868152766	0.06978375627495827	0.010012315838297156
